<?xml version="1.0" encoding="utf-8"?>
<!-- Generator: Adobe Illustrator 26.4.1, SVG Export Plug-In . SVG Version: 6.00 Build 0)  -->
<svg version="1.1" id="Layer_1" xmlns="http://www.w3.org/2000/svg" xmlns:xlink="http://www.w3.org/1999/xlink" x="0px" y="0px"
	 viewBox="0 0 154.7 192" style="enable-background:new 0 0 154.7 192;" xml:space="preserve">
<style type="text/css">
	.st0{fill:#36358F;}
	.st1{fill:none;}
	.st2{fill:#7674B1;}
	.st3{fill:#29276B;}
	.st4{fill:#2A286C;}
	.st5{fill:#2B296C;}
	.st6{fill:#2A286B;}
	.st7{fill:#2C2A6D;}
	.st8{fill:#2C2A6E;}
	.st9{fill:#2E2C6E;}
	.st10{fill:#343173;}
	.st11{fill:#37347A;}
	.st12{fill:#2F2D76;}
	.st13{fill:#2F2E7A;}
	.st14{fill:#302F7B;}
	.st15{fill:#E9E7F0;}
	.st16{fill:#CCC9DE;}
	.st17{fill:#2F2E79;}
</style>
<path class="st0" d="M152.5,95.8c0-29-0.1-58.1,0.1-87.1c0-3.9-0.6-5.4-5-5.4C101.3,3.6,55,3.5,8.8,3.4c-4.1,0-4.8,1.2-4.8,5
	c0.1,58.2,0.1,116.4,0,174.6c0,4.1,1.3,4.8,5,4.7c46.3-0.1,92.5-0.1,138.8,0c3.9,0,4.9-1,4.9-4.9
	C152.4,153.9,152.5,124.9,152.5,95.8z M120.5,9.1c7.8,0,15.6,0,23.3,0c1.4,0,3.2-0.5,3.2,1.9c0,12.2,0,24.3,0,36.5
	c-9.1-16.9-21.6-29.7-39-38.4C112.2,9.1,116.4,9.1,120.5,9.1z M59.2,82.2c0,30.9,0,61.7,0,92.6c0,2.6,0.7,5.4-1.6,7.5
	c-4.1,0-8.3,0-12.4,0c-2.5-2-1.7-4.9-1.7-7.4c0-32.2,0-64.3,0-96.5c0.7-15.3,9.6-28.6,23.2-32.9c13.7-4.4,26.3-2,36.5,8.8
	c11.7,12.4,12.8,29,3.1,43.4c-8.5,12.6-25.5,17.8-39.7,12.2c-1.2-0.5-2.5-1-3.5-1.9c-2.9-4.4-1.9-9.3-1.3-14c0.4-3.4,3-2.5,4.9-1.3
	c3.6,2.3,7.3,3.7,11.7,3.7c10.2-0.1,18.3-7.7,18.8-17.5c0.5-10.3-7.1-18.9-17.6-20c-9.2-1-18.7,6.8-20.1,16.3
	C59.1,77.5,59.2,79.9,59.2,82.2z M45,40.5c0-1.8,1.5-2.5,2.6-3.4c15.5-11,32.3-13.6,49.8-6.3c17.5,7.2,27.8,20.6,31.1,39.4
	c5.8,33.4-25.5,67.2-64.7,56.5c-0.8-4.5-2.7-9,1.1-13.1c17.6,6.7,37.3-0.4,46.7-16.9c9.3-16.3,5.3-36.9-9.5-48.8
	c-8.9-7.1-19.1-9.5-30.3-7.7c-11,1.7-19.3,7.9-26.7,16.4C45,51.2,45,45.8,45,40.5z M62.9,78.1c-0.2-8.4,6.9-15.4,15.5-15.3
	c8.4,0.1,15.2,6.8,15.2,15.1c0,8.3-6.8,15-15.2,15C70,92.9,63,86.2,62.9,78.1z M64.8,131.6c7.7,0.6,15.5,1.5,23.2,0
	c38.7-7.5,57.5-50.1,36.3-83.4c-11.2-17.6-28-25.7-49-25c-9.2,0.3-17.5,3.1-25.4,7.6c-4.7,2.7-6.1,1.8-6.4-3.6
	c-0.1-2.3-0.1-4.6,0.1-7c0.1-2.2,0.6-1.9,3.5-3.9c11.3-5.2,23-7.9,35.5-7.2c33.9,2,60.7,29.3,63.9,61.2c3.4,34-17.5,62.7-46.1,72.4
	c-11.7,4-23.6,4.5-35.7,2.7C59.8,142.8,59.9,134.7,64.8,131.6z M142.9,182.5c-26.4-0.2-52.7-0.1-79.1-0.1c-1.7-0.8-2.3-2.3-2.4-4
	c-0.3-8.1-0.3-16.1,0-24.2c0-1.3,0.4-2.6,1.6-3.5c11.2,1.2,22.4,2,33.5-1c21.3-5.7,37.1-18.4,47.6-37.7c0.7-1.3,1.3-2.6,2-3.9
	c1.5,0.7,0.9,1.8,1,2.7c0,22.4,0,44.8,0.1,67.2C147.2,181.3,146.5,182.5,142.9,182.5z"/>
<path class="st1" d="M147.1,47.5c0-12.2,0-24.3,0-36.5c0-2.4-1.9-1.9-3.2-1.9c-7.8,0-15.6,0-23.3,0c-4.1,0-8.3,0-12.4,0
	C125.5,17.8,138,30.6,147.1,47.5z"/>
<path class="st1" d="M71.7,40.1c11.2-1.8,21.4,0.6,30.3,7.7c14.9,11.9,18.9,32.5,9.5,48.8c-9.4,16.5-29,23.6-46.7,16.9
	c-3.8,4.1-1.8,8.6-1.1,13.1c39.2,10.7,70.5-23.1,64.7-56.5C125.3,51.3,115,38,97.5,30.8c-17.6-7.2-34.4-4.7-49.8,6.3
	c-1.2,0.8-2.6,1.5-2.6,3.4c0,5.4,0,10.8,0,16.1C52.4,48.1,60.7,41.9,71.7,40.1z"/>
<path class="st1" d="M64.8,145.5c12.1,1.8,24,1.3,35.7-2.7c28.6-9.8,49.5-38.5,46.1-72.4c-3.2-31.9-30-59.2-63.9-61.2
	c-12.5-0.7-24.3,2-35.5,7.2c-2.6,0.1-3.4,1.7-3.5,3.9c-0.1,2.3-0.2,4.6-0.1,7c0.2,5.4,1.6,6.3,6.4,3.6c7.9-4.5,16.2-7.3,25.4-7.6
	c21-0.7,37.8,7.4,49,25c21.2,33.3,2.4,75.9-36.3,83.4c-7.8,1.5-15.5,0.6-23.2,0C59.9,134.7,59.8,142.8,64.8,145.5z"/>
<path class="st1" d="M147.1,110.8c0-0.9,0.6-2-1-2.7c-0.7,1.3-1.3,2.6-2,3.9c-10.5,19.4-26.3,32-47.6,37.7c-11.1,3-22.3,2.2-33.5,1
	c-1.2,0.9-1.5,2.2-1.6,3.5c-0.3,8.1-0.3,16.1,0,24.2c0.1,1.7,0.7,3.2,2.4,4c26.4,0,52.7-0.1,79.1,0.1c3.7,0,4.3-1.2,4.3-4.5
	C147,155.6,147.1,133.2,147.1,110.8z"/>
<path class="st1" d="M71.7,40.1c11.2-1.8,21.4,0.6,30.3,7.7c14.9,11.9,18.9,32.5,9.5,48.8c-9.4,16.5-29,23.6-46.7,16.9
	c-3.8,4.1-1.8,8.6-1.1,13.1c39.2,10.7,70.5-23.1,64.7-56.5C125.3,51.3,115,38,97.5,30.8c-17.6-7.2-34.4-4.7-49.8,6.3
	c-1.2,0.8-2.6,1.5-2.6,3.4c0,5.4,0,10.8,0,16.1C52.4,48.1,60.7,41.9,71.7,40.1z"/>
<path class="st1" d="M79.6,58.9c10.4,1.1,18,9.8,17.6,20c-0.5,9.8-8.6,17.4-18.8,17.5c-4.3,0.1-8.1-1.4-11.7-3.7
	c-1.9-1.2-4.5-2.1-4.9,1.3c-0.6,4.7-1.6,9.6,1.3,14c1,0.9,2.2,1.4,3.5,1.9c14.2,5.6,31.2,0.4,39.7-12.2c9.7-14.4,8.6-31.1-3.1-43.4
	C93,43.5,80.3,41.1,66.6,45.5c-13.6,4.3-22.5,17.6-23.2,32.9c0,32.2,0,64.3,0,96.5c0,2.5-0.8,5.4,1.7,7.4c4.1,0,8.3,0,12.4,0
	c2.3-2.1,1.6-4.9,1.6-7.5c0.1-30.9,0-61.7,0-92.6c0-2.3-0.1-4.7,0.2-7C60.9,65.7,70.4,57.9,79.6,58.9z"/>
<path class="st1" d="M147.1,47.5c0-12.2,0-24.3,0-36.5c0-2.4-1.9-1.9-3.2-1.9c-7.8,0-15.6,0-23.3,0c-4.1,0-8.3,0-12.4,0
	C125.5,17.8,138,30.6,147.1,47.5z"/>
<path class="st1" d="M64.8,145.5c12.1,1.8,24,1.3,35.7-2.7c28.6-9.8,49.5-38.5,46.1-72.4c-3.2-31.9-30-59.2-63.9-61.2
	c-12.5-0.7-24.3,2-35.5,7.2c-2.8,1.6-3.4,1.7-3.5,3.9c-0.1,2.3-0.2,4.6-0.1,7c0.2,5.4,1.6,6.3,6.4,3.6c7.9-4.5,16.2-7.3,25.4-7.6
	c21-0.7,37.8,7.4,49,25c21.2,33.3,2.4,75.9-36.3,83.4c-7.8,1.5-15.5,0.6-23.2,0C59.9,134.7,59.8,142.8,64.8,145.5z"/>
<path class="st1" d="M147.1,110.8c0-0.9,0.6-2-1-2.7c-0.7,1.3-1.3,2.6-2,3.9c-10.5,19.4-26.3,32-47.6,37.7c-11.1,3-22.3,2.2-33.5,1
	c-1.2,0.9-1.5,2.2-1.6,3.5c-0.3,8.1-0.3,16.1,0,24.2c0.1,1.7,0.7,3.2,2.4,4c26.4,0,52.7-0.1,79.1,0.1c3.7,0,4.3-1.2,4.3-4.5
	C147,155.6,147.1,133.2,147.1,110.8z"/>
<path class="st2" d="M96.9,69.6c-3.7-8.3-12.7-13.4-21.4-12c-10.7,1.6-17.8,9.9-17.8,21.2c-0.1,34.5-0.1,69-0.1,103.5
	c2.1,0,4.1,0.1,6.2,0.1c-0.1-0.1-0.1-0.2-0.2-0.2h2.3V93.9c0.5,0.3,0.9,0.6,1.3,0.9c7.4,4.9,17.4,4.3,24.5-1.6
	C98.4,87.6,100.5,77.8,96.9,69.6z M78.3,92.9c-8.3,0-15.3-6.7-15.5-14.9c-0.2-8.4,6.9-15.4,15.5-15.3c8.4,0.1,15.2,6.8,15.2,15.1
	C93.6,86.1,86.8,92.9,78.3,92.9z"/>
<rect x="39.6" y="8.5" class="st0" width="6.2" height="175.2"/>
<rect x="10.4" y="8.7" class="st2" width="13.3" height="173.7"/>
<rect x="27.6" y="8.7" class="st2" width="13.3" height="173.7"/>
</svg>
