<?xml version="1.0" encoding="utf-8"?>
<!-- Generator: Adobe Illustrator 26.4.1, SVG Export Plug-In . SVG Version: 6.00 Build 0)  -->
<svg version="1.1" id="Layer_1" xmlns="http://www.w3.org/2000/svg" xmlns:xlink="http://www.w3.org/1999/xlink" x="0px" y="0px"
	 viewBox="0 0 447.8 118.7" style="enable-background:new 0 0 447.8 118.7;" xml:space="preserve">
<style type="text/css">
	.st0{fill:#36358F;}
	.st1{fill:none;}
	.st2{fill:#7674B1;}
	.st3{fill:#29276B;}
	.st4{fill:#2A286C;}
	.st5{fill:#2B296C;}
	.st6{fill:#2A286B;}
	.st7{fill:#2C2A6D;}
	.st8{fill:#2C2A6E;}
	.st9{fill:#2E2C6E;}
	.st10{fill:#343173;}
	.st11{fill:#37347A;}
	.st12{fill:#2F2D76;}
	.st13{fill:#2F2E7A;}
	.st14{fill:#302F7B;}
	.st15{fill:#E9E7F0;}
	.st16{fill:#CCC9DE;}
	.st17{fill:#2F2E79;}
</style>
<path class="st0" d="M94.9,55.3c0-15.4,0-30.9,0-46.3c0-2.1-0.3-2.9-2.7-2.9c-24.6,0.1-49.2,0.1-73.8,0c-2.2,0-2.6,0.7-2.6,2.7
	c0.1,30.9,0.1,61.9,0,92.8c0,2.2,0.7,2.5,2.6,2.5c24.6-0.1,49.2-0.1,73.8,0c2.1,0,2.6-0.5,2.6-2.6C94.9,86.2,94.9,70.7,94.9,55.3z
	 M78,9.2c4.1,0,8.3,0,12.4,0c0.7,0,1.7-0.3,1.7,1c0,6.5,0,12.9,0,19.4c-4.8-9-11.5-15.8-20.7-20.4C73.6,9.2,75.8,9.2,78,9.2z
	 M45.4,48c0,16.4,0,32.8,0,49.2c0,1.4,0.4,2.9-0.8,4c-2.2,0-4.4,0-6.6,0c-1.3-1.1-0.9-2.6-0.9-4c0-17.1,0-34.2,0-51.3
	c0.4-8.1,5.1-15.2,12.3-17.5c7.3-2.3,14-1.1,19.4,4.7c6.2,6.6,6.8,15.4,1.6,23.1c-4.5,6.7-13.6,9.5-21.1,6.5c-0.7-0.3-1.3-0.5-1.8-1
	c-1.5-2.4-1-5-0.7-7.4c0.2-1.8,1.6-1.3,2.6-0.7c1.9,1.2,3.9,2,6.2,2c5.4-0.1,9.7-4.1,10-9.3c0.3-5.5-3.8-10.1-9.3-10.6
	c-4.9-0.5-10,3.6-10.7,8.7C45.4,45.6,45.4,46.8,45.4,48z M37.8,25.9c0-1,0.8-1.3,1.4-1.8c8.2-5.9,17.1-7.2,26.5-3.4
	c9.3,3.8,14.8,10.9,16.5,21c3.1,17.8-13.6,35.7-34.4,30c-0.4-2.4-1.4-4.8,0.6-7c9.4,3.5,19.8-0.2,24.8-9c5-8.7,2.8-19.6-5.1-25.9
	C63.4,26,58,24.8,52,25.7c-5.9,0.9-10.3,4.2-14.2,8.7C37.8,31.6,37.8,28.7,37.8,25.9z M47.3,45.8c-0.1-4.5,3.7-8.2,8.3-8.1
	c4.5,0,8.1,3.6,8.1,8c0,4.4-3.6,8-8.1,8C51.1,53.8,47.4,50.2,47.3,45.8z M48.4,74.3c4.1,0.3,8.2,0.8,12.4,0
	C81.3,70.3,91.3,47.7,80,30c-6-9.3-14.9-13.6-26-13.3c-4.9,0.2-9.3,1.7-13.5,4.1c-2.5,1.4-3.3,1-3.4-1.9c-0.1-1.2,0-2.5,0-3.7
	c0.1-1.2,0.3-1,1.9-2.1c6-2.8,12.2-4.2,18.9-3.8c18,1.1,32.3,15.6,34,32.5c1.8,18.1-9.3,33.3-24.5,38.5c-6.2,2.1-12.5,2.4-19,1.4
	C45.7,80.2,45.7,75.9,48.4,74.3z M89.9,101.4c-14-0.1-28-0.1-42-0.1c-0.9-0.4-1.2-1.2-1.3-2.1c-0.2-4.3-0.2-8.6,0-12.8
	c0-0.7,0.2-1.4,0.8-1.8c6,0.6,11.9,1.1,17.8-0.5c11.3-3.1,19.7-9.8,25.3-20.1c0.4-0.7,0.7-1.4,1.1-2.1c0.8,0.4,0.5,1,0.5,1.4
	c0,11.9,0,23.8,0.1,35.7C92.2,100.7,91.8,101.4,89.9,101.4z"/>
<path class="st1" d="M92.1,29.6c0-6.5,0-12.9,0-19.4c0-1.3-1-1-1.7-1c-4.1,0-8.3,0-12.4,0c-2.2,0-4.4,0-6.6,0
	C80.6,13.8,87.3,20.6,92.1,29.6z"/>
<path class="st1" d="M52,25.7c6-0.9,11.4,0.3,16.1,4.1c7.9,6.3,10,17.3,5.1,25.9c-5,8.8-15.4,12.6-24.8,9c-2,2.2-1,4.6-0.6,7
	c20.8,5.7,37.5-12.3,34.4-30c-1.7-10-7.2-17.1-16.5-21c-9.3-3.8-18.3-2.5-26.5,3.4c-0.6,0.4-1.4,0.8-1.4,1.8c0,2.9,0,5.7,0,8.6
	C41.8,29.9,46.2,26.6,52,25.7z"/>
<path class="st1" d="M48.4,81.7c6.4,1,12.8,0.7,19-1.4c15.2-5.2,26.3-20.4,24.5-38.5c-1.7-16.9-15.9-31.5-34-32.5
	c-6.6-0.4-12.9,1-18.9,3.8c-1.4,0-1.8,0.9-1.9,2.1c-0.1,1.2-0.1,2.5,0,3.7c0.1,2.9,0.9,3.3,3.4,1.9c4.2-2.4,8.6-3.9,13.5-4.1
	C65.1,16.3,74,20.6,80,30c11.3,17.7,1.3,40.3-19.3,44.3c-4.1,0.8-8.2,0.3-12.4,0C45.7,75.9,45.7,80.2,48.4,81.7z"/>
<path class="st1" d="M92.1,63.2c0-0.5,0.3-1.1-0.5-1.4c-0.4,0.7-0.7,1.4-1.1,2.1c-5.6,10.3-14,17-25.3,20.1
	c-5.9,1.6-11.9,1.2-17.8,0.5c-0.6,0.5-0.8,1.1-0.8,1.8c-0.1,4.3-0.2,8.6,0,12.8c0,0.9,0.4,1.7,1.3,2.1c14,0,28,0,42,0.1
	c1.9,0,2.3-0.6,2.3-2.4C92.1,87.1,92.1,75.2,92.1,63.2z"/>
<g>
	<path class="st3" d="M117.4,69.9c0,4.1,0.1,7.1,0,10.1c-0.1,2.6-1.1,4.8-4.1,4.9c-3,0.1-4.6-1.6-4.6-4.4c-0.1-13.5-0.1-27.1,0-40.6
		c0-2.3,1.5-5,3.5-4.2c6,2.3,11.6-1.2,17.4-0.3c8.8,1.4,15.8,10.6,14.9,19.7c-1,9.8-9.7,17.5-19.1,16.6
		C123.1,71.6,120.8,70.8,117.4,69.9z"/>
	<path class="st4" d="M214.8,72.7c-12.4-1.8-17-7.2-17.1-20.3c0-3.9-0.1-7.8,0.1-11.7c0.1-2.5,0.8-4.9,3.9-5.1
		c3.7-0.2,4.5,2.5,4.5,5.4c0.1,4.8,0,9.6,0.1,14.4c0.1,4.5,2.2,7.6,7,7.6c4.5,0,6.4-3.2,6.7-7.1c0.4-5.1,0.2-10.2,0.3-15.3
		c0.1-2.5,0.4-5,3.8-5c3.1,0,4.2,2,4.1,4.7c0,9.9,0.6,19.9-0.3,29.8c-0.9,10.3-13.1,16.8-22.6,13c-2.4-1-4.6-2.2-4.1-5.1
		c0.5-2.9,3.1-2,5.1-2.4C209.2,75,212.7,77.1,214.8,72.7z"/>
	<path class="st5" d="M344.4,47.4c3.1-3.6,6.2-7.4,9.5-10.9c2.2-2.3,4.9-4.3,7.7-1.1c2.2,2.5,0.9,5-1.2,7.2
		c-0.6,0.6-1.2,1.4-1.9,1.9c-7.6,5-6.6,10.1-0.3,15.5c1.3,1.2,2.4,2.7,3.3,4.3c1.4,2.2,1.8,4.5-0.5,6.5c-2.5,2.2-4.4,0.9-6.2-1
		c-1.2-1.3-2.3-2.9-3.6-4c-2.4-2-3.1-6.9-7-6c-3.7,0.8-2,5.1-2.8,7.9c-0.7,2.5-1.9,4.7-4.9,4.2c-3-0.5-3.4-2.9-3.4-5.5
		c0-13.3,0-26.6,0-39.9c0-2.6,0.5-5,3.7-5.2c3.6-0.2,4.7,2.3,4.8,5.3c0.2,6.5,0,13.1,0,19.6C342.5,46.5,343.5,46.9,344.4,47.4z"/>
	<path class="st6" d="M187.2,53.5c0,0.9,0.1,1.8,0,2.7c-0.9,5.1,2.2,14.6-2.7,14.4c-8.5-0.2-18.4,5.1-26.1-3.1
		c-5.4-5.7-7.6-12.1-5.1-19.8c2.8-8.7,9.6-13.3,18.4-12.4c3.6,0.4,6.9,2.8,11.1,0.3c2.5-1.5,4.1,1.7,4.2,4.3c0.2,4.5,0,9,0,13.5
		C187.1,53.5,187.2,53.5,187.2,53.5z"/>
	<path class="st4" d="M379.8,56.3c4.1,7.6,9,8.5,14.9,6c2.6-1.1,5.3-2.8,7,0.4c2,3.6-1.2,5.4-3.8,6.9c-9.3,5.2-20.7,1.7-25.3-7.7
		c-4.6-9.6-0.6-21,8.7-25.2c9.2-4.1,20.4,0.5,23.7,10c2.1,5.9,1.5,10.1-6.4,9.7C392.8,56.1,386.9,56.3,379.8,56.3z"/>
	<path class="st7" d="M289.4,54c-0.3-7.3,2.9-12.8,9.2-16.4c6-3.3,12.1-3.2,18.1,0c2.8,1.5,5.5,3.4,3.5,7c-1.8,3.2-4.5,2.1-7.1,0.7
		c-5.4-2.9-10-1.6-13.5,3.1c-2.7,3.5-2.5,7.4,0.4,10.8c3.6,4.3,8,5,13,2.6c2.8-1.3,6.1-2.6,7.6,1.4c1.4,3.8-1.8,5.3-4.6,6.6
		C303.5,75.9,289.7,67.6,289.4,54z"/>
	<path class="st8" d="M254.6,35.5c5.7,0.3,6.3,4.2,3.1,7c-7.4,6.6-4.3,14-2.1,20.9c1,3,3.1,5.4,0,7.6c-3.4,2.4-6.4,0.1-8.6-2.4
		c-2.8-3.2-1.9-7.4-2.2-11.2c-0.5-5.5,2.7-12.1-4.7-15.7c-1.6-0.8-1-4.6,0.3-4.6c9.9-0.6-2-17.6,11.5-14.9
		C254.2,26.3,250.3,31.7,254.6,35.5z"/>
	<path class="st9" d="M429.5,35.6c4.8,1.1,4.9,4.6,2.1,7.1c-7.3,6.5-4.5,14-2,20.8c1.3,3.6,2.9,6.4-1.1,8c-3.8,1.5-7.4-0.9-8.5-4.6
		c-1.1-3.9-0.7-8.3-1-12.5c-0.3-4.5,1.9-9.8-4.6-12.1c-1.4-0.5-2.3-3.2-1.2-3.8c6.5-3.4,5.3-9.7,6.7-15.2c0.7-2.8,3.3-3,5.8-1.3
		C428.3,26.2,423.6,32.4,429.5,35.6z"/>
	<path class="st10" d="M273.3,36.9c4.6-3.2,6.7-0.7,6.9,3.7c0.3,8.7,0.1,17.4,0.1,26.1c0,2.2-0.8,4.3-3.1,5
		c-2.8,0.8-4.6-0.5-5.1-3.4C273.8,57.8,271.3,47.3,273.3,36.9z"/>
	<path class="st11" d="M280.4,25.8c-0.5,3.1-1.7,5-4.7,4.8c-2.9-0.2-4.2-2-4.1-4.8c0.1-3.2,1.7-5,5-4.7
		C279.7,21.4,279.9,24,280.4,25.8z"/>
	<path class="st12" d="M273.3,36.9c-0.5,10.5,1.9,21-1.3,31.4C272,57.8,269.7,47.2,273.3,36.9z"/>
	<path class="st13" d="M429.5,35.6c-7.5-2.8-2.3-9.1-3.8-13.6C430.4,25.6,425.3,31.9,429.5,35.6z"/>
	<path class="st14" d="M254.6,35.5c-5.5-3.5-1.7-9-2.7-13.4C255.8,26,252.3,31.3,254.6,35.5z"/>
	<path class="st15" d="M126.3,43.8c5.5,0.6,9,3.6,9.3,9.2c0.3,5.6-2.7,9.5-8.3,9.9c-6.2,0.4-9.3-3.4-9.6-9.5
		C117.3,47.4,121.1,45,126.3,43.8z"/>
	<path class="st15" d="M160.9,53.6c0.5-5.6,3.2-9.7,8.8-9.7c6,0,9.4,4.4,9.1,10.2c-0.2,5.2-3.4,9.2-9.2,9
		C163.7,62.9,161.4,58.9,160.9,53.6z"/>
	<path class="st16" d="M380.4,49.8c3.9-9.1,9.8-9.7,16.5-1.4C391.8,53.3,386,51,380.4,49.8z"/>
	<path class="st17" d="M380.4,49.8c5.5-0.4,11.3,2,16.5-1.4c0.8,1,1.3,2.7,0.1,2.8C391.4,51.8,385.6,53.9,380.4,49.8z"/>
</g>
<path class="st1" d="M52,25.7c6-0.9,11.4,0.3,16.1,4.1c7.9,6.3,10,17.3,5.1,25.9c-5,8.8-15.4,12.6-24.8,9c-2,2.2-1,4.6-0.6,7
	c20.8,5.7,37.5-12.3,34.4-30c-1.7-10-7.2-17.1-16.5-21c-9.3-3.8-18.3-2.5-26.5,3.4c-0.6,0.4-1.4,0.8-1.4,1.8c0,2.9,0,5.7,0,8.6
	C41.8,29.9,46.2,26.6,52,25.7z"/>
<path class="st1" d="M56.2,35.7c5.5,0.6,9.6,5.2,9.3,10.6c-0.2,5.2-4.6,9.2-10,9.3c-2.3,0-4.3-0.7-6.2-2c-1-0.7-2.4-1.1-2.6,0.7
	c-0.3,2.5-0.8,5.1,0.7,7.4c0.5,0.5,1.2,0.8,1.8,1c7.5,3,16.6,0.2,21.1-6.5c5.2-7.7,4.6-16.5-1.6-23.1c-5.4-5.7-12.1-7-19.4-4.7
	c-7.2,2.3-12,9.4-12.3,17.5c0,17.1,0,34.2,0,51.3c0,1.4-0.4,2.9,0.9,4c2.2,0,4.4,0,6.6,0c1.2-1.1,0.8-2.6,0.8-4
	c0-16.4,0-32.8,0-49.2c0-1.2-0.1-2.5,0.1-3.7C46.3,39.3,51.3,35.1,56.2,35.7z"/>
<path class="st1" d="M92.1,29.6c0-6.5,0-12.9,0-19.4c0-1.3-1-1-1.7-1c-4.1,0-8.3,0-12.4,0c-2.2,0-4.4,0-6.6,0
	C80.6,13.8,87.3,20.6,92.1,29.6z"/>
<path class="st1" d="M48.4,81.7c6.4,1,12.8,0.7,19-1.4c15.2-5.2,26.3-20.4,24.5-38.5c-1.7-16.9-15.9-31.5-34-32.5
	c-6.6-0.4-12.9,1-18.9,3.8c-1.5,0.9-1.8,0.9-1.9,2.1c-0.1,1.2-0.1,2.5,0,3.7c0.1,2.9,0.9,3.3,3.4,1.9c4.2-2.4,8.6-3.9,13.5-4.1
	C65.1,16.3,74,20.6,80,30c11.3,17.7,1.3,40.3-19.3,44.3c-4.1,0.8-8.2,0.3-12.4,0C45.7,75.9,45.7,80.2,48.4,81.7z"/>
<path class="st1" d="M92.1,63.2c0-0.5,0.3-1.1-0.5-1.4c-0.4,0.7-0.7,1.4-1.1,2.1c-5.6,10.3-14,17-25.3,20.1
	c-5.9,1.6-11.9,1.2-17.8,0.5c-0.6,0.5-0.8,1.1-0.8,1.8c-0.1,4.3-0.2,8.6,0,12.8c0,0.9,0.4,1.7,1.3,2.1c14,0,28,0,42,0.1
	c1.9,0,2.3-0.6,2.3-2.4C92.1,87.1,92.1,75.2,92.1,63.2z"/>
<path class="st2" d="M65.4,41.4c-1.9-4.4-6.7-7.1-11.4-6.4c-5.7,0.9-9.4,5.3-9.5,11.3c0,18.3-0.1,36.7-0.1,55c1.1,0,2.2,0,3.3,0
	c0,0-0.1-0.1-0.1-0.1H49V54.3c0.2,0.2,0.5,0.3,0.7,0.5c3.9,2.6,9.2,2.3,13-0.9C66.2,50.9,67.4,45.7,65.4,41.4z M55.6,53.7
	c-4.4,0-8.1-3.6-8.2-7.9c-0.1-4.5,3.7-8.2,8.3-8.1c4.5,0,8.1,3.6,8.1,8C63.7,50.1,60,53.7,55.6,53.7z"/>
<rect x="34.9" y="8.9" class="st0" width="3.3" height="93.2"/>
<rect x="19.5" y="9" class="st2" width="7.1" height="92.3"/>
<rect x="28.6" y="9" class="st2" width="7.1" height="92.3"/>
</svg>
