<?xml version="1.0" encoding="utf-8"?>
<!-- Generator: Adobe Illustrator 26.4.1, SVG Export Plug-In . SVG Version: 6.00 Build 0)  -->
<svg version="1.1" id="Layer_1" xmlns="http://www.w3.org/2000/svg" xmlns:xlink="http://www.w3.org/1999/xlink" x="0px" y="0px"
	 viewBox="0 0 222.9 265.3" style="enable-background:new 0 0 222.9 265.3;" xml:space="preserve">
<style type="text/css">
	.st0{fill:#36358F;}
	.st1{fill:none;}
	.st2{fill:#7674B1;}
	.st3{fill:#29276B;}
	.st4{fill:#2A286C;}
	.st5{fill:#2B296C;}
	.st6{fill:#2A286B;}
	.st7{fill:#2C2A6D;}
	.st8{fill:#2C2A6E;}
	.st9{fill:#2E2C6E;}
	.st10{fill:#343173;}
	.st11{fill:#37347A;}
	.st12{fill:#2F2D76;}
	.st13{fill:#2F2E7A;}
	.st14{fill:#302F7B;}
	.st15{fill:#E9E7F0;}
	.st16{fill:#CCC9DE;}
	.st17{fill:#2F2E79;}
</style>
<path class="st0" d="M187.8,100.9c0-29-0.1-58.1,0.1-87.1c0-3.9-0.6-5.4-5-5.4c-46.3,0.2-92.5,0.2-138.8,0c-4.1,0-4.8,1.2-4.8,5
	c0.1,58.2,0.1,116.4,0,174.6c0,4.1,1.3,4.8,5,4.7c46.3-0.1,92.5-0.1,138.8,0c3.9,0,4.9-1,4.9-4.9
	C187.7,158.9,187.8,129.9,187.8,100.9z M155.9,14.2c7.8,0,15.6,0,23.3,0c1.4,0,3.2-0.5,3.2,1.9c0,12.2,0,24.3,0,36.5
	c-9.1-16.9-21.6-29.7-39-38.4C147.6,14.2,151.7,14.2,155.9,14.2z M94.6,87.2c0,30.9,0,61.7,0,92.6c0,2.6,0.7,5.4-1.6,7.5
	c-4.1,0-8.3,0-12.4,0c-2.5-2-1.7-4.9-1.7-7.4c0-32.2,0-64.3,0-96.5c0.7-15.3,9.6-28.6,23.2-32.9c13.7-4.4,26.3-2,36.5,8.8
	c11.7,12.4,12.8,29,3.1,43.4c-8.5,12.6-25.5,17.8-39.7,12.2c-1.2-0.5-2.5-1-3.5-1.9c-2.9-4.4-1.9-9.3-1.3-14c0.4-3.4,3-2.5,4.9-1.3
	c3.6,2.3,7.3,3.7,11.7,3.7c10.2-0.1,18.3-7.7,18.8-17.5c0.5-10.3-7.1-18.9-17.6-20c-9.2-1-18.7,6.8-20.1,16.3
	C94.5,82.6,94.6,84.9,94.6,87.2z M80.4,45.5c0-1.8,1.5-2.5,2.6-3.4c15.5-11,32.3-13.6,49.8-6.3c17.5,7.2,27.8,20.6,31.1,39.4
	c5.8,33.4-25.5,67.2-64.7,56.5c-0.8-4.5-2.7-9,1.1-13.1c17.6,6.7,37.3-0.4,46.7-16.9c9.3-16.3,5.3-36.9-9.5-48.8
	c-8.9-7.1-19.1-9.5-30.3-7.7c-11,1.7-19.3,7.9-26.7,16.4C80.4,56.3,80.4,50.9,80.4,45.5z M98.2,83.1c-0.2-8.4,6.9-15.4,15.5-15.3
	c8.4,0.1,15.2,6.8,15.2,15.1c0,8.3-6.8,15-15.2,15C105.4,98,98.4,91.3,98.2,83.1z M100.2,136.6c7.7,0.6,15.5,1.5,23.2,0
	c38.7-7.5,57.5-50.1,36.3-83.4c-11.2-17.6-28-25.7-49-25c-9.2,0.3-17.5,3.1-25.4,7.6c-4.7,2.7-6.1,1.8-6.4-3.6
	c-0.1-2.3-0.1-4.6,0.1-7c0.1-2.2,0.6-1.9,3.5-3.9c11.3-5.2,23-7.9,35.5-7.2c33.9,2,60.7,29.3,63.9,61.2c3.4,34-17.5,62.7-46.1,72.4
	c-11.7,4-23.6,4.5-35.7,2.7C95.2,147.8,95.2,139.7,100.2,136.6z M178.3,187.6c-26.4-0.2-52.7-0.1-79.1-0.1c-1.7-0.8-2.3-2.3-2.4-4
	c-0.3-8.1-0.3-16.1,0-24.2c0-1.3,0.4-2.6,1.6-3.5c11.2,1.2,22.4,2,33.5-1c21.3-5.7,37.1-18.4,47.6-37.7c0.7-1.3,1.3-2.6,2-3.9
	c1.5,0.7,0.9,1.8,1,2.7c0,22.4,0,44.8,0.1,67.2C182.6,186.4,181.9,187.6,178.3,187.6z"/>
<path class="st3" d="M29.3,241.2c0,2.3,0,3.9,0,5.6c0,1.5-0.6,2.6-2.3,2.7c-1.6,0.1-2.5-0.9-2.5-2.4c-0.1-7.4,0-14.9,0-22.3
	c0-1.2,0.8-2.8,1.9-2.3c3.3,1.3,6.4-0.6,9.6-0.1c4.8,0.8,8.7,5.8,8.2,10.8c-0.6,5.4-5.3,9.6-10.5,9.1
	C32.5,242.1,31.2,241.7,29.3,241.2z"/>
<path class="st4" d="M82.8,242.7c-6.8-1-9.4-4-9.4-11.2c0-2.2,0-4.3,0-6.5c0-1.4,0.4-2.7,2.1-2.8c2-0.1,2.5,1.3,2.5,2.9
	c0.1,2.6,0,5.3,0.1,7.9c0.1,2.5,1.2,4.2,3.9,4.2c2.5,0,3.5-1.8,3.7-3.9c0.2-2.8,0.1-5.6,0.2-8.4c0-1.4,0.2-2.7,2.1-2.7
	c1.7,0,2.3,1.1,2.3,2.6c0,5.5,0.3,10.9-0.2,16.4c-0.5,5.7-7.2,9.2-12.4,7.1c-1.3-0.5-2.5-1.2-2.3-2.8c0.3-1.6,1.7-1.1,2.8-1.3
	C79.8,244,81.7,245.2,82.8,242.7z"/>
<path class="st5" d="M154.1,228.8c1.7-2,3.4-4.1,5.2-6c1.2-1.2,2.7-2.3,4.2-0.6c1.2,1.4,0.5,2.8-0.7,3.9c-0.3,0.4-0.7,0.8-1.1,1
	c-4.1,2.8-3.6,5.6-0.2,8.5c0.7,0.6,1.3,1.5,1.8,2.3c0.8,1.2,1,2.5-0.3,3.6c-1.4,1.2-2.4,0.5-3.4-0.6c-0.7-0.7-1.2-1.6-2-2.2
	c-1.3-1.1-1.7-3.8-3.9-3.3c-2,0.5-1.1,2.8-1.6,4.3c-0.4,1.4-1,2.6-2.7,2.3c-1.6-0.3-1.9-1.6-1.9-3c0-7.3,0-14.6,0-21.9
	c0-1.4,0.3-2.7,2-2.8c2-0.1,2.6,1.3,2.6,2.9c0.1,3.6,0,7.2,0,10.8C153,228.3,153.6,228.6,154.1,228.8z"/>
<path class="st6" d="M67.7,232.2c0,0.5,0.1,1,0,1.5c-0.5,2.8,1.2,8-1.5,7.9c-4.7-0.1-10.1,2.8-14.3-1.7c-3-3.1-4.2-6.6-2.8-10.9
	c1.6-4.8,5.3-7.3,10.1-6.8c2,0.2,3.8,1.5,6.1,0.2c1.4-0.8,2.2,0.9,2.3,2.4C67.7,227.3,67.6,229.7,67.7,232.2
	C67.6,232.2,67.7,232.2,67.7,232.2z"/>
<path class="st4" d="M173.5,233.7c2.3,4.2,5,4.7,8.2,3.3c1.4-0.6,2.9-1.5,3.9,0.2c1.1,2-0.6,3-2.1,3.8c-5.1,2.9-11.4,0.9-13.9-4.2
	c-2.5-5.3-0.3-11.5,4.8-13.8c5.1-2.3,11.2,0.3,13,5.5c1.1,3.2,0.8,5.5-3.5,5.3C180.7,233.6,177.4,233.7,173.5,233.7z"/>
<path class="st7" d="M123.9,232.5c-0.2-4,1.6-7,5.1-9c3.3-1.8,6.6-1.8,9.9,0c1.6,0.8,3,1.9,1.9,3.9c-1,1.7-2.5,1.1-3.9,0.4
	c-3-1.6-5.5-0.9-7.4,1.7c-1.5,1.9-1.4,4,0.2,5.9c2,2.4,4.4,2.7,7.1,1.4c1.6-0.7,3.3-1.4,4.2,0.8c0.8,2.1-1,2.9-2.5,3.6
	C131.6,244.5,124,240,123.9,232.5z"/>
<path class="st8" d="M104.7,222.3c3.2,0.1,3.4,2.3,1.7,3.8c-4.1,3.6-2.4,7.7-1.2,11.5c0.5,1.6,1.7,3,0,4.2c-1.9,1.3-3.5,0.1-4.7-1.3
	c-1.5-1.8-1-4-1.2-6.2c-0.3-3,1.5-6.6-2.6-8.6c-0.9-0.4-0.5-2.5,0.1-2.5c5.4-0.3-1.1-9.7,6.3-8.2
	C104.5,217.3,102.4,220.2,104.7,222.3z"/>
<path class="st9" d="M200.9,222.4c2.7,0.6,2.7,2.5,1.2,3.9c-4,3.6-2.5,7.7-1.1,11.4c0.7,2,1.6,3.5-0.6,4.4c-2.1,0.8-4.1-0.5-4.7-2.5
	c-0.6-2.2-0.4-4.6-0.6-6.9c-0.2-2.5,1-5.4-2.6-6.6c-0.8-0.3-1.2-1.8-0.7-2.1c3.5-1.9,2.9-5.3,3.7-8.4c0.4-1.6,1.8-1.7,3.2-0.7
	C200.2,217.2,197.6,220.6,200.9,222.4z"/>
<path class="st10" d="M115,223.1c2.5-1.7,3.7-0.4,3.8,2c0.2,4.8,0.1,9.6,0,14.4c0,1.2-0.4,2.4-1.7,2.7c-1.5,0.4-2.5-0.3-2.8-1.9
	C115.3,234.6,113.9,228.8,115,223.1z"/>
<path class="st11" d="M118.9,217c-0.3,1.7-0.9,2.8-2.6,2.6c-1.6-0.1-2.3-1.1-2.3-2.6c0-1.7,0.9-2.8,2.8-2.6
	C118.5,214.6,118.6,216,118.9,217z"/>
<path class="st12" d="M115,223.1c-0.3,5.7,1.1,11.6-0.7,17.2C114.3,234.5,113,228.7,115,223.1z"/>
<path class="st13" d="M200.9,222.4c-4.1-1.5-1.3-5-2.1-7.5C201.3,216.9,198.5,220.3,200.9,222.4z"/>
<path class="st14" d="M104.7,222.3c-3-2-1-4.9-1.5-7.4C105.4,217.1,103.4,220,104.7,222.3z"/>
<path class="st1" d="M182.5,52.5c0-12.2,0-24.3,0-36.5c0-2.4-1.9-1.9-3.2-1.9c-7.8,0-15.6,0-23.3,0c-4.1,0-8.3,0-12.4,0
	C160.9,22.8,173.4,35.6,182.5,52.5z"/>
<path class="st1" d="M107.1,45.2c11.2-1.8,21.4,0.6,30.3,7.7c14.9,11.9,18.9,32.5,9.5,48.8c-9.4,16.5-29,23.6-46.7,16.9
	c-3.8,4.1-1.8,8.6-1.1,13.1c39.2,10.7,70.5-23.1,64.7-56.5c-3.3-18.9-13.6-32.2-31.1-39.4c-17.6-7.2-34.4-4.7-49.8,6.3
	c-1.2,0.8-2.6,1.5-2.6,3.4c0,5.4,0,10.8,0,16.1C87.8,53.1,96,46.9,107.1,45.2z"/>
<path class="st1" d="M100.2,150.6c12.1,1.8,24,1.3,35.7-2.7c28.6-9.8,49.5-38.5,46.1-72.4c-3.2-31.9-30-59.2-63.9-61.2
	c-12.5-0.7-24.3,2-35.5,7.2c-2.6,0.1-3.4,1.7-3.5,3.9c-0.1,2.3-0.2,4.6-0.1,7c0.2,5.4,1.6,6.3,6.4,3.6c7.9-4.5,16.2-7.3,25.4-7.6
	c21-0.7,37.8,7.4,49,25c21.2,33.3,2.4,75.9-36.3,83.4c-7.8,1.5-15.5,0.6-23.2,0C95.2,139.7,95.2,147.8,100.2,150.6z"/>
<path class="st1" d="M182.4,115.8c0-0.9,0.6-2-1-2.7c-0.7,1.3-1.3,2.6-2,3.9c-10.5,19.4-26.3,32-47.6,37.7c-11.1,3-22.3,2.2-33.5,1
	c-1.2,0.9-1.5,2.2-1.6,3.5c-0.3,8.1-0.3,16.1,0,24.2c0.1,1.7,0.7,3.2,2.4,4c26.4,0,52.7-0.1,79.1,0.1c3.7,0,4.3-1.2,4.3-4.5
	C182.4,160.6,182.5,138.2,182.4,115.8z"/>
<path class="st15" d="M34.2,226.9c3,0.3,4.9,2,5.1,5.1c0.2,3.1-1.5,5.2-4.6,5.4c-3.4,0.2-5.1-1.9-5.3-5.2
	C29.3,228.9,31.4,227.6,34.2,226.9z"/>
<path class="st15" d="M53.3,232.2c0.3-3.1,1.7-5.3,4.8-5.3c3.3,0,5.1,2.4,5,5.6c-0.1,2.9-1.8,5.1-5.1,5
	C54.8,237.4,53.5,235.2,53.3,232.2z"/>
<path class="st16" d="M173.9,230.2c2.1-5,5.4-5.3,9.1-0.8C180.1,232.1,177,230.8,173.9,230.2z"/>
<path class="st17" d="M173.9,230.2c3-0.2,6.2,1.1,9.1-0.8c0.5,0.5,0.7,1.5,0,1.6C179.9,231.3,176.7,232.4,173.9,230.2z"/>
<path class="st1" d="M107.1,45.2c11.2-1.8,21.4,0.6,30.3,7.7c14.9,11.9,18.9,32.5,9.5,48.8c-9.4,16.5-29,23.6-46.7,16.9
	c-3.8,4.1-1.8,8.6-1.1,13.1c39.2,10.7,70.5-23.1,64.7-56.5c-3.3-18.9-13.6-32.2-31.1-39.4c-17.6-7.2-34.4-4.7-49.8,6.3
	c-1.2,0.8-2.6,1.5-2.6,3.4c0,5.4,0,10.8,0,16.1C87.8,53.1,96,46.9,107.1,45.2z"/>
<path class="st1" d="M115,63.9c10.4,1.1,18,9.8,17.6,20c-0.5,9.8-8.6,17.4-18.8,17.5c-4.3,0.1-8.1-1.4-11.7-3.7
	c-1.9-1.2-4.5-2.1-4.9,1.3c-0.6,4.7-1.6,9.6,1.3,14c1,0.9,2.2,1.4,3.5,1.9c14.2,5.6,31.2,0.4,39.7-12.2c9.7-14.4,8.6-31.1-3.1-43.4
	c-10.2-10.8-22.8-13.2-36.5-8.8c-13.6,4.3-22.5,17.6-23.2,32.9c0,32.2,0,64.3,0,96.5c0,2.5-0.8,5.4,1.7,7.4c4.1,0,8.3,0,12.4,0
	c2.3-2.1,1.6-4.9,1.6-7.5c0.1-30.9,0-61.7,0-92.6c0-2.3-0.1-4.7,0.2-7C96.2,70.7,105.8,63,115,63.9z"/>
<path class="st1" d="M182.5,52.5c0-12.2,0-24.3,0-36.5c0-2.4-1.9-1.9-3.2-1.9c-7.8,0-15.6,0-23.3,0c-4.1,0-8.3,0-12.4,0
	C160.9,22.8,173.4,35.6,182.5,52.5z"/>
<path class="st1" d="M100.2,150.6c12.1,1.8,24,1.3,35.7-2.7c28.6-9.8,49.5-38.5,46.1-72.4c-3.2-31.9-30-59.2-63.9-61.2
	c-12.5-0.7-24.3,2-35.5,7.2c-2.8,1.6-3.4,1.7-3.5,3.9c-0.1,2.3-0.2,4.6-0.1,7c0.2,5.4,1.6,6.3,6.4,3.6c7.9-4.5,16.2-7.3,25.4-7.6
	c21-0.7,37.8,7.4,49,25c21.2,33.3,2.4,75.9-36.3,83.4c-7.8,1.5-15.5,0.6-23.2,0C95.2,139.7,95.2,147.8,100.2,150.6z"/>
<path class="st1" d="M182.4,115.8c0-0.9,0.6-2-1-2.7c-0.7,1.3-1.3,2.6-2,3.9c-10.5,19.4-26.3,32-47.6,37.7c-11.1,3-22.3,2.2-33.5,1
	c-1.2,0.9-1.5,2.2-1.6,3.5c-0.3,8.1-0.3,16.1,0,24.2c0.1,1.7,0.7,3.2,2.4,4c26.4,0,52.7-0.1,79.1,0.1c3.7,0,4.3-1.2,4.3-4.5
	C182.4,160.6,182.5,138.2,182.4,115.8z"/>
<path class="st2" d="M132.3,74.7c-3.7-8.3-12.7-13.4-21.4-12c-10.7,1.6-17.8,9.9-17.8,21.2c-0.1,34.5-0.1,69-0.1,103.5
	c2.1,0,4.1,0.1,6.2,0.1c-0.1-0.1-0.1-0.2-0.2-0.2h2.3V99c0.5,0.3,0.9,0.6,1.3,0.9c7.4,4.9,17.4,4.3,24.5-1.6
	C133.7,92.7,135.9,82.9,132.3,74.7z M113.7,98c-8.3,0-15.3-6.7-15.5-14.9c-0.2-8.4,6.9-15.4,15.5-15.3c8.4,0.1,15.2,6.8,15.2,15.1
	C128.9,91.2,122.1,97.9,113.7,98z"/>
<rect x="74.9" y="13.5" class="st0" width="6.2" height="175.2"/>
<rect x="45.8" y="13.7" class="st2" width="13.3" height="173.7"/>
<rect x="63" y="13.7" class="st2" width="13.3" height="173.7"/>
</svg>
