<?xml version="1.0" encoding="utf-8"?>
<!-- Generator: Adobe Illustrator 26.4.1, SVG Export Plug-In . SVG Version: 6.00 Build 0)  -->
<svg version="1.1" id="Layer_1" xmlns="http://www.w3.org/2000/svg" xmlns:xlink="http://www.w3.org/1999/xlink" x="0px" y="0px"
	 viewBox="0 0 195.2 48" style="enable-background:new 0 0 195.2 48;" xml:space="preserve">
<style type="text/css">
	.st0{fill:#36358F;}
	.st1{fill:none;}
	.st2{fill:#7674B1;}
	.st3{fill:#29276B;}
	.st4{fill:#2A286C;}
	.st5{fill:#2B296C;}
	.st6{fill:#2A286B;}
	.st7{fill:#2C2A6D;}
	.st8{fill:#2C2A6E;}
	.st9{fill:#2E2C6E;}
	.st10{fill:#343173;}
	.st11{fill:#37347A;}
	.st12{fill:#2F2D76;}
	.st13{fill:#2F2E7A;}
	.st14{fill:#302F7B;}
	.st15{fill:#E9E7F0;}
	.st16{fill:#CCC9DE;}
	.st17{fill:#2F2E79;}
</style>
<path class="st3" d="M14.2,32.8c0,2.3,0,3.9,0,5.6c0,1.5-0.6,2.6-2.3,2.7c-1.6,0.1-2.5-0.9-2.5-2.4c-0.1-7.4,0-14.9,0-22.3
	c0-1.2,0.8-2.8,1.9-2.3c3.3,1.3,6.4-0.6,9.6-0.1c4.8,0.8,8.7,5.8,8.2,10.8c-0.6,5.4-5.3,9.6-10.5,9.1C17.3,33.7,16,33.3,14.2,32.8z"
	/>
<path class="st4" d="M67.7,34.3c-6.8-1-9.4-4-9.4-11.2c0-2.2,0-4.3,0-6.5c0-1.4,0.4-2.7,2.1-2.8c2-0.1,2.5,1.3,2.5,2.9
	c0.1,2.6,0,5.3,0.1,7.9c0.1,2.5,1.2,4.2,3.9,4.2c2.5,0,3.5-1.8,3.7-3.9c0.2-2.8,0.1-5.6,0.2-8.4c0-1.4,0.2-2.7,2.1-2.7
	c1.7,0,2.3,1.1,2.3,2.6c0,5.5,0.3,10.9-0.2,16.4c-0.5,5.7-7.2,9.2-12.4,7.1c-1.3-0.5-2.5-1.2-2.3-2.8c0.3-1.6,1.7-1.1,2.8-1.3
	C64.6,35.6,66.5,36.8,67.7,34.3z"/>
<path class="st5" d="M138.9,20.4c1.7-2,3.4-4.1,5.2-6c1.2-1.2,2.7-2.3,4.2-0.6c1.2,1.4,0.5,2.8-0.7,3.9c-0.3,0.4-0.7,0.8-1.1,1
	c-4.1,2.8-3.6,5.6-0.2,8.5c0.7,0.6,1.3,1.5,1.8,2.3c0.8,1.2,1,2.5-0.3,3.6c-1.4,1.2-2.4,0.5-3.4-0.6c-0.7-0.7-1.2-1.6-2-2.2
	c-1.3-1.1-1.7-3.8-3.9-3.3c-2,0.5-1.1,2.8-1.6,4.3c-0.4,1.4-1,2.6-2.7,2.3c-1.6-0.3-1.9-1.6-1.9-3c0-7.3,0-14.6,0-21.9
	c0-1.4,0.3-2.7,2-2.8c2-0.1,2.6,1.3,2.6,2.9c0.1,3.6,0,7.2,0,10.8C137.9,19.9,138.4,20.2,138.9,20.4z"/>
<path class="st6" d="M52.5,23.8c0,0.5,0.1,1,0,1.5c-0.5,2.8,1.2,8-1.5,7.9C46.4,33.1,41,36,36.7,31.5c-3-3.1-4.2-6.6-2.8-10.9
	c1.6-4.8,5.3-7.3,10.1-6.8c2,0.2,3.8,1.5,6.1,0.2c1.4-0.8,2.2,0.9,2.3,2.4C52.5,18.8,52.5,21.3,52.5,23.8
	C52.5,23.8,52.5,23.8,52.5,23.8z"/>
<path class="st4" d="M158.4,25.3c2.3,4.2,5,4.7,8.2,3.3c1.4-0.6,2.9-1.5,3.9,0.2c1.1,2-0.6,3-2.1,3.8c-5.1,2.9-11.4,0.9-13.9-4.2
	c-2.5-5.3-0.3-11.5,4.8-13.8c5.1-2.3,11.2,0.3,13,5.5c1.1,3.2,0.8,5.5-3.5,5.3C165.5,25.2,162.3,25.3,158.4,25.3z"/>
<path class="st7" d="M108.7,24.1c-0.2-4,1.6-7,5.1-9c3.3-1.8,6.6-1.8,9.9,0c1.6,0.8,3,1.9,1.9,3.9c-1,1.7-2.5,1.1-3.9,0.4
	c-3-1.6-5.5-0.9-7.4,1.7c-1.5,1.9-1.4,4,0.2,5.9c2,2.4,4.4,2.7,7.1,1.4c1.6-0.7,3.3-1.4,4.2,0.8c0.8,2.1-1,2.9-2.5,3.6
	C116.4,36.1,108.8,31.5,108.7,24.1z"/>
<path class="st8" d="M89.5,13.9c3.2,0.1,3.4,2.3,1.7,3.8c-4.1,3.6-2.4,7.7-1.2,11.5c0.5,1.6,1.7,3,0,4.2c-1.9,1.3-3.5,0.1-4.7-1.3
	c-1.5-1.8-1-4-1.2-6.2c-0.3-3,1.5-6.6-2.6-8.6c-0.9-0.4-0.5-2.5,0.1-2.5c5.4-0.3-1.1-9.7,6.3-8.2C89.3,8.8,87.2,11.8,89.5,13.9z"/>
<path class="st9" d="M185.7,14c2.7,0.6,2.7,2.5,1.2,3.9c-4,3.6-2.5,7.7-1.1,11.4c0.7,2,1.6,3.5-0.6,4.4c-2.1,0.8-4.1-0.5-4.7-2.5
	c-0.6-2.2-0.4-4.6-0.6-6.9c-0.2-2.5,1-5.4-2.6-6.6c-0.8-0.3-1.2-1.8-0.7-2.1c3.5-1.9,2.9-5.3,3.7-8.4c0.4-1.6,1.8-1.7,3.2-0.7
	C185,8.8,182.5,12.2,185.7,14z"/>
<path class="st10" d="M99.8,14.6c2.5-1.7,3.7-0.4,3.8,2c0.2,4.8,0.1,9.6,0,14.4c0,1.2-0.4,2.4-1.7,2.7c-1.5,0.4-2.5-0.3-2.8-1.9
	C100.1,26.2,98.8,20.3,99.8,14.6z"/>
<path class="st11" d="M103.7,8.6c-0.3,1.7-0.9,2.8-2.6,2.6c-1.6-0.1-2.3-1.1-2.3-2.6c0-1.7,0.9-2.8,2.8-2.6
	C103.4,6.1,103.5,7.5,103.7,8.6z"/>
<path class="st12" d="M99.8,14.6c-0.3,5.7,1.1,11.6-0.7,17.2C99.1,26.1,97.9,20.3,99.8,14.6z"/>
<path class="st13" d="M185.7,14c-4.1-1.5-1.3-5-2.1-7.5C186.2,8.5,183.4,11.9,185.7,14z"/>
<path class="st14" d="M89.5,13.9c-3-2-1-4.9-1.5-7.4C90.2,8.6,88.3,11.6,89.5,13.9z"/>
<path class="st15" d="M19.1,18.5c3,0.3,4.9,2,5.1,5.1c0.2,3.1-1.5,5.2-4.6,5.4c-3.4,0.2-5.1-1.9-5.3-5.2
	C14.1,20.4,16.2,19.1,19.1,18.5z"/>
<path class="st15" d="M38.1,23.8c0.3-3.1,1.7-5.3,4.8-5.3c3.3,0,5.1,2.4,5,5.6c-0.1,2.9-1.8,5.1-5.1,5
	C39.6,28.9,38.4,26.7,38.1,23.8z"/>
<path class="st16" d="M158.7,21.8c2.1-5,5.4-5.3,9.1-0.8C165,23.7,161.8,22.4,158.7,21.8z"/>
<path class="st17" d="M158.7,21.8c3-0.2,6.2,1.1,9.1-0.8c0.5,0.5,0.7,1.5,0,1.6C164.8,22.9,161.6,24,158.7,21.8z"/>
</svg>
